<?xml version="1.0" encoding="UTF-8" standalone="no"?>
<svg height="547.16" width="1722" xmlns="http://www.w3.org/2000/svg" version="1.1" viewBox="17 17 963.04639 307.37054">
 <rect height="300" width="960" stroke="#000" y="20.685" x="18.526" stroke-width="4" fill="#fff"/>
 <g stroke="#000" fill="none">
  <g stroke-width="4">
   <rect height="40" width="40" y="40.685" x="118.53"/>
   <rect height="40" width="40" y="40.685" x="158.53"/>
   <rect height="40" width="40" y="40.685" x="198.53"/>
   <rect height="40" width="40" y="40.685" x="238.53"/>
   <rect height="40" width="40" y="40.685" x="298.53"/>
   <rect height="40" width="40" y="40.685" x="378.53"/>
   <rect height="40" width="40" y="40.685" x="418.53"/>
   <rect height="40" width="40" y="40.685" x="478.53"/>
   <rect height="40" width="40" y="40.685" x="558.53"/>
   <rect height="40" width="40" y="40.685" x="598.53"/>
   <rect height="40" width="40" y="40.685" x="658.53"/>
   <rect height="40" width="40" y="40.685" x="738.53"/>
   <rect height="40" width="40" y="100.69" x="658.53"/>
   <rect height="40" width="40" y="100.69" x="738.53"/>
   <rect height="40" width="40" y="140.69" x="658.53"/>
   <rect height="40" width="40" y="140.69" x="738.53"/>
   <rect height="40" width="40" y="260.69" x="658.53"/>
   <rect height="40" width="40" y="260.69" x="738.53"/>
   <rect height="40" width="40" y="100.69" x="878.53"/>
   <rect height="40" width="40" y="100.69" x="918.53"/>
   <rect height="40" width="40" y="140.69" x="798.53"/>
   <rect height="40" width="40" y="140.69" x="878.53"/>
   <rect height="80" width="40" y="140.69" x="918.53"/>
   <rect height="40" width="40" y="180.69" x="798.53"/>
   <rect height="40" width="40" y="180.69" x="878.53"/>
   <rect height="40" width="40" y="220.69" x="798.53"/>
   <rect height="40" width="40" y="220.69" x="878.53"/>
   <rect height="40" width="80" y="260.69" x="798.53"/>
   <rect height="40" width="40" y="260.69" x="878.53"/>
   <rect height="80" width="40" y="220.69" x="918.53"/>
   <rect height="40" width="40" y="100.69" x="38.526"/>
   <rect height="40" width="40" y="100.69" x="78.526"/>
   <rect height="40" width="40" y="100.69" x="118.53"/>
   <rect height="40" width="40" y="100.69" x="158.53"/>
   <rect height="40" width="40" y="100.69" x="198.53"/>
   <rect height="40" width="40" y="100.69" x="238.53"/>
   <rect height="40" width="40" y="100.69" x="278.53"/>
   <rect height="40" width="40" y="100.69" x="318.53"/>
   <rect height="40" width="40" y="100.69" x="358.53"/>
   <rect height="40" width="40" y="100.69" x="398.53"/>
   <rect height="40" width="40" y="100.69" x="438.53"/>
   <rect height="40" width="40" y="100.69" x="478.53"/>
   <rect height="40" width="40" y="100.69" x="518.53"/>
   <rect height="40" width="40" y="100.69" x="558.53"/>
   <rect height="40" width="40" y="100.69" x="598.53"/>
   <rect height="40" width="60" y="140.69" x="38.526"/>
   <rect height="40" width="40" y="140.69" x="98.526"/>
   <rect height="40" width="40" y="140.69" x="138.53"/>
   <rect height="40" width="40" y="140.69" x="178.53"/>
   <rect height="40" width="40" y="140.69" x="218.53"/>
   <rect height="40" width="40" y="140.69" x="258.53"/>
   <rect height="40" width="40" y="140.69" x="298.53"/>
   <rect height="40" width="40" y="140.69" x="338.53"/>
   <rect height="40" width="40" y="140.69" x="378.53"/>
   <rect height="40" width="40" y="140.69" x="418.53"/>
   <rect height="40" width="40" y="140.69" x="458.53"/>
   <rect height="40" width="40" y="140.69" x="498.53"/>
   <rect height="40" width="40" y="140.69" x="538.53"/>
  </g>
  <path d="m1003.4 220.18v71.2h-35.56v71.21h142.36v-71.21-71.2h-106.8z" transform="matrix(.56176 0 0 .56176 14.838 17)" stroke-width="7.1205"/>
  <g stroke-width="4">
   <rect height="40" width="60" y="180.69" x="38.526"/>
   <rect height="40" width="40" y="180.69" x="118.53"/>
   <rect height="40" width="40" y="180.69" x="158.53"/>
   <rect height="40" width="40" y="180.69" x="198.53"/>
   <rect height="40" width="40" y="180.69" x="238.53"/>
   <rect height="40" width="40" y="180.69" x="278.53"/>
   <rect height="40" width="40" y="180.69" x="318.53"/>
   <rect height="40" width="40" y="180.69" x="358.53"/>
   <rect height="40" width="40" y="180.69" x="398.53"/>
   <rect height="40" width="40" y="180.69" x="438.53"/>
   <rect height="40" width="40" y="180.69" x="478.53"/>
   <rect height="40" width="40" y="180.69" x="518.53"/>
   <rect height="40" width="20" y="180.69" x="98.526"/>
   <rect height="40" width="40" y="220.69" x="138.53"/>
   <rect height="40" width="40" y="220.69" x="178.53"/>
   <rect height="40" width="40" y="220.69" x="218.53"/>
   <rect height="40" width="40" y="220.69" x="258.53"/>
   <rect height="40" width="40" y="220.69" x="298.53"/>
   <rect height="40" width="40" y="220.69" x="338.53"/>
   <rect height="40" width="40" y="220.69" x="378.53"/>
   <rect height="40" width="40" y="220.69" x="418.53"/>
   <rect height="40" width="40" y="220.69" x="458.53"/>
   <rect height="40" width="40" y="220.69" x="498.53"/>
   <rect height="40" width="100" y="220.69" x="538.53"/>
   <rect height="40" width="100" y="220.69" x="38.526"/>
   <rect height="40" width="40" y="260.69" x="38.526"/>
   <rect height="40" width="60" y="260.69" x="78.526"/>
   <rect height="40" width="60" y="260.69" x="138.53"/>
   <rect height="40" width="240" y="260.69" x="198.53"/>
   <rect height="40" width="60" y="260.69" x="438.53"/>
   <rect height="40" width="60" y="260.69" x="498.53"/>
   <rect height="40" width="40" y="260.69" x="558.53"/>
   <rect height="40" width="40" y="260.69" x="598.53"/>
   <rect height="40" width="40" y="40.685" x="38.526"/>
   <rect height="40" width="40" y="40.685" x="698.53"/>
   <rect height="40" width="40" y="140.69" x="698.53"/>
   <rect height="40" width="40" y="40.685" x="338.53"/>
   <rect height="40" width="40" y="40.685" x="518.53"/>
   <rect height="40" width="40" y="260.69" x="698.53"/>
   <rect height="40" width="40" y="220.69" x="698.53"/>
   <rect height="40" width="40" y="220.69" x="838.53"/>
   <rect height="40" width="40" y="180.69" x="838.53"/>
   <rect height="40" width="40" y="140.69" x="838.53"/>
   <rect height="40" width="40" y="100.69" x="838.53"/>
   <rect height="40" width="40" y="100.69" x="798.53"/>
   <rect height="40" width="40" y="100.69" x="698.53"/>
  </g>
 </g>
 <g stroke="#000" stroke-width="4" fill="none">
  <rect height="40" width="160" y="40.685" x="798.53"/>
  <rect height="8" width="16" y="56.685" x="826.71"/>
  <rect height="8" width="16" y="56.685" x="870.53"/>
  <rect height="8" width="16" y="56.685" x="914.34"/>
 </g>
 <g font-weight="700" font-family="sans-serif">
  <g font-size="14.111px" fill="#000">
   <text style="text-anchor:middle">
    <tspan y="116.14627" x="58.525745">~</tspan>
    <tspan y="133.78528" x="58.525745">`</tspan>
    <tspan y="116.14627" x="98.525742">!</tspan>
    <tspan y="133.78528" x="98.525742">1</tspan>
    <tspan y="116.14627" x="138.52574">@</tspan>
    <tspan y="133.78528" x="138.52574">2</tspan>
    <tspan y="116.14627" x="178.52574">#</tspan>
    <tspan y="133.78528" x="178.52574">3</tspan>
    <tspan y="116.14627" x="218.52574">$</tspan>
    <tspan y="133.78528" x="218.52574">4</tspan>
    <tspan y="116.14627" x="258.52576">%</tspan>
    <tspan y="133.78528" x="258.52576">5</tspan>
    <tspan y="116.14627" x="298.52576">^</tspan>
    <tspan y="133.78528" x="298.52576">6</tspan>
    <tspan y="116.14627" x="338.52576">&amp;</tspan>
    <tspan y="133.78528" x="338.52576">7</tspan>
    <tspan y="116.14627" x="378.52576">*</tspan>
    <tspan y="133.78528" x="378.52576">8</tspan>
    <tspan y="116.14627" x="418.52576">(</tspan>
    <tspan y="133.78528" x="418.52576">9</tspan>
    <tspan y="116.14627" x="458.52576">)</tspan>
    <tspan y="133.78528" x="458.52576">0</tspan>
    <tspan y="116.14627" x="498.52576">_</tspan>
    <tspan y="133.78528" x="498.52576">-</tspan>
    <tspan y="116.14627" x="538.52576">+</tspan>
    <tspan y="133.78528" x="538.52576">=</tspan>
    <tspan y="116.14627" x="578.52576">|</tspan>
    <tspan y="133.78528" x="578.52576">\</tspan>
    <tspan y="124.96627" x="618.52576">←</tspan>
   </text>
  </g>
  <g font-size="14.111px" fill="#000">
   <text style="text-anchor:middle">
    <tspan y="164.96628" x="68.525742">Tab</tspan>
    <tspan y="164.96628" x="118.52574">Q</tspan>
    <tspan y="164.96628" x="158.52574">W</tspan>
    <tspan y="164.96628" x="198.52574">E</tspan>
    <tspan y="164.96628" x="238.52574">R</tspan>
    <tspan y="164.96628" x="278.52576">T</tspan>
    <tspan y="164.96628" x="318.52576">Y</tspan>
    <tspan y="164.96628" x="358.52576">U</tspan>
    <tspan y="164.96628" x="398.52576">I</tspan>
    <tspan y="164.96628" x="438.52576">O</tspan>
    <tspan y="164.96628" x="478.52576">P</tspan>
    <tspan y="156.14627" x="518.52576">{</tspan>
    <tspan y="173.78528" x="518.52576">[</tspan>
    <tspan y="156.14627" x="558.52576">}</tspan>
    <tspan y="173.78528" x="558.52576">]</tspan>
   </text>
  </g>
  <g font-size="14.111px" fill="#000">
   <text style="text-anchor:middle">
    <tspan y="204.96628" x="598.52576">Enter</tspan>
    <tspan y="204.96628" x="68.525742">Caps</tspan>
    <tspan y="204.96628" x="138.52574">A</tspan>
    <tspan y="204.96628" x="178.52574">S</tspan>
    <tspan y="204.96628" x="218.52574">D</tspan>
    <tspan y="204.96628" x="258.52576">F</tspan>
    <tspan y="204.96628" x="298.52576">G</tspan>
    <tspan y="204.96628" x="338.52576">H</tspan>
    <tspan y="204.96628" x="378.52576">J</tspan>
    <tspan y="204.96628" x="418.52576">K</tspan>
    <tspan y="204.96628" x="458.52576">L</tspan>
    <tspan y="196.14627" x="498.52576">:</tspan>
    <tspan y="213.78528" x="498.52576">;</tspan>
    <tspan y="196.14627" x="538.52576">&quot;</tspan>
    <tspan y="213.78528" x="538.52576">&apos;</tspan>
   </text>
  </g>
  <g font-size="14.111px" fill="#000">
   <text style="text-anchor:middle">
    <tspan y="244.96628" x="158.52574">Z</tspan>
    <tspan y="244.96628" x="198.52574">X</tspan>
    <tspan y="244.96628" x="238.52574">C</tspan>
    <tspan y="244.96628" x="278.52576">V</tspan>
    <tspan y="244.96628" x="318.52576">B</tspan>
    <tspan y="244.96628" x="358.52576">N</tspan>
    <tspan y="244.96628" x="398.52576">M</tspan>
    <tspan y="236.14627" x="438.52576">&lt;</tspan>
    <tspan y="253.78528" x="438.52576">,</tspan>
    <tspan y="236.14627" x="478.52576">&gt;</tspan>
    <tspan y="253.78528" x="478.52576">.</tspan>
    <tspan y="236.14627" x="518.52576">?</tspan>
    <tspan y="253.78528" x="518.52576">/</tspan>
    <tspan y="244.96628" x="588.52576">Shift</tspan>
    <tspan y="244.96628" x="88.525742">Shift</tspan>
   </text>
  </g>
  <g font-size="14.111px">
   <text opacity="0" style="text-anchor:middle">
    <tspan y="284.96628" x="108.52574" style="">1</tspan>
    <tspan y="284.96628" x="528.52576" style="">1</tspan>
    <tspan y="284.96628" x="578.52576" style="">1</tspan>
   </text>
  </g>
  <g font-size="14.111px" fill="#000">
   <text style="text-anchor:middle">
    <tspan y="284.96628" x="58.525745">Ctrl</tspan>
    <tspan y="284.96628" x="168.52574">Alt</tspan>
    <tspan y="284.96628" x="468.52576">Alt</tspan>
    <tspan y="284.96628" x="618.52576">Ctrl</tspan>
   </text>
  </g>
  <g font-size="8.4667px" fill="#000">
   <text style="text-anchor:middle">
    <tspan y="52.660267" x="678.52576">Print</tspan>
    <tspan y="63.243568" x="678.52576">Scrn</tspan>
    <tspan y="73.826973" x="678.52576">SysRq</tspan>
    <tspan y="57.951969" x="758.52576">Pause</tspan>
    <tspan y="68.535271" x="758.52576">Break</tspan>
    <tspan y="57.951969" x="718.52576">Scroll</tspan>
    <tspan y="68.535271" x="718.52576">Lock</tspan>
   </text>
  </g>
  <g font-size="14.111px" fill="#000">
   <text style="text-anchor:middle">
    <tspan y="64.965874" x="58.525745">Esc</tspan>
    <tspan y="64.965874" x="138.52574">F1</tspan>
    <tspan y="64.965874" x="178.52574">F2</tspan>
    <tspan y="64.965874" x="218.52574">F3</tspan>
    <tspan y="64.965874" x="258.52576">F4</tspan>
    <tspan y="64.965874" x="318.52576">F5</tspan>
    <tspan y="64.965874" x="358.52576">F6</tspan>
    <tspan y="64.965874" x="398.52576">F7</tspan>
    <tspan y="64.965874" x="438.52576">F8</tspan>
    <tspan y="64.965874" x="498.52576">F9</tspan>
    <tspan y="64.965874" x="538.52576">F10</tspan>
    <tspan y="64.965874" x="578.52576">F11</tspan>
    <tspan y="64.965874" x="618.52576">F12</tspan>
   </text>
  </g>
  <g font-size="14.111px" fill="#000">
   <text style="text-anchor:middle">
    <tspan y="284.96628" x="678.52576">&#x2190;</tspan>
    <tspan y="284.96628" x="758.52576">&#x2192;</tspan>
    <tspan y="284.96628" x="718.52576">&#x2193;</tspan>
    <tspan y="244.96628" x="718.52576">&#x2191;</tspan>
   </text>
  </g>
  <g font-size="14.111px" fill="#000">
   <text style="text-anchor:middle">
    <tspan y="124.96627" x="898.52576">*</tspan>
    <tspan y="124.96627" x="938.52576">-</tspan>
    <tspan y="164.96628" x="818.52576">7</tspan>
    <tspan y="164.96628" x="898.52576">9</tspan>
    <tspan y="184.96628" x="938.52576">+</tspan>
    <tspan y="204.96628" x="818.52576">4</tspan>
    <tspan y="204.96628" x="898.52576">6</tspan>
    <tspan y="244.96628" x="818.52576">1</tspan>
    <tspan y="244.96628" x="898.52576">3</tspan>
    <tspan y="284.96628" x="838.52576">0</tspan>
    <tspan y="284.96628" x="898.52576">.</tspan>
    <tspan y="244.96628" x="858.52576">2</tspan>
    <tspan y="204.96628" x="858.52576">5</tspan>
    <tspan y="164.96628" x="858.52576">8</tspan>
    <tspan y="124.96627" x="858.52576">/</tspan>
   </text>
  </g>
  <g font-size="8.4667px" fill="#000">
   <text style="text-anchor:middle">
    <tspan y="123.24327" x="678.52576">Insert</tspan>
    <tspan y="117.95227" x="758.52576">Page</tspan>
    <tspan y="128.53526" x="758.52576">Up</tspan>
    <tspan y="163.24327" x="678.52576">Delete</tspan>
    <tspan y="157.95227" x="758.52576">Page</tspan>
    <tspan y="168.53528" x="758.52576">Down</tspan>
    <tspan y="163.24327" x="718.52576">End</tspan>
    <tspan y="123.24327" x="718.52576">Home</tspan>
   </text>
  </g>
  <g fill="#000">
   <g font-size="8.4667px">
    <text style="text-anchor:middle">
     <tspan y="263.24329" x="938.52576">Enter</tspan>
     <tspan y="117.95227" x="818.52576">Num</tspan>
     <tspan y="128.53526" x="818.52576">Lock</tspan>
     <tspan y="173.82727" x="818.52527">Home</tspan>
     <tspan y="173.82727" x="898.52527">Pg Up</tspan>
     <tspan y="253.82727" x="818.52527">End</tspan>
     <tspan y="253.82727" x="898.52527">Pg Dn</tspan>
     <tspan y="293.82727" x="838.52527">Ins</tspan>
     <tspan y="293.82727" x="898.52527">Del</tspan>
    </text>
   </g>
   <g font-size="14.111px">
    <text style="text-anchor:middle">
     <tspan y="215.07796" x="818.52527">&#x2190;</tspan>
     <tspan y="215.07796" x="898.52527">&#x2192;</tspan>
     <tspan y="256.20148" x="858.52527">&#x2193;</tspan>
     <tspan y="176.20148" x="858.52527">&#x2191;</tspan>
    </text>
   </g>
  </g>
 </g>
</svg>
